<svg width="64" height="64" viewBox="0 0 64 64" fill="none" xmlns="http://www.w3.org/2000/svg">
<circle cx="32" cy="32" r="32" fill="#1F2937"/>
<path fill-rule="evenodd" clip-rule="evenodd" d="M22.6667 21.3334C22.3131 21.3334 21.9739 21.4739 21.7239 21.7239C21.4738 21.974 21.3334 22.3131 21.3334 22.6667V40.7811L24.3905 37.7239C24.6406 37.4739 24.9797 37.3334 25.3334 37.3334H41.3334C41.687 37.3334 42.0261 37.1929 42.2762 36.9429C42.5262 36.6928 42.6667 36.3537 42.6667 36.0001V22.6667C42.6667 22.3131 42.5262 21.974 42.2762 21.7239C42.0261 21.4739 41.687 21.3334 41.3334 21.3334H22.6667ZM19.8383 19.8383C20.5884 19.0882 21.6058 18.6667 22.6667 18.6667H41.3334C42.3942 18.6667 43.4116 19.0882 44.1618 19.8383C44.9119 20.5885 45.3334 21.6059 45.3334 22.6667V36.0001C45.3334 37.0609 44.9119 38.0784 44.1618 38.8285C43.4116 39.5787 42.3942 40.0001 41.3334 40.0001H25.8856L20.9428 44.9429C20.5615 45.3242 19.988 45.4383 19.4898 45.2319C18.9915 45.0255 18.6667 44.5394 18.6667 44.0001V22.6667C18.6667 21.6059 19.0881 20.5885 19.8383 19.8383Z" fill="#9CA3AF"/>
</svg>
