<svg width="162" height="24" viewBox="0 0 162 24" fill="none" xmlns="http://www.w3.org/2000/svg">
<path d="M7.09448 23.2941V2.21176H15.8851C17.4574 2.21176 18.8765 2.47278 20.1425 2.99482C21.429 3.49678 22.5316 4.2196 23.4505 5.16329C24.3898 6.0869 25.1045 7.19121 25.5945 8.47623C26.0846 9.76125 26.3297 11.1868 26.3297 12.7529C26.3297 14.299 26.0846 15.7245 25.5945 17.0296C25.1045 18.3147 24.4 19.429 23.4811 20.3727C22.5623 21.2963 21.4596 22.0191 20.1732 22.5412C18.8867 23.0431 17.4574 23.2941 15.8851 23.2941H7.09448ZM11.6889 20.0113L11.1988 19.2282H15.7319C16.6508 19.2282 17.4778 19.0776 18.2129 18.7765C18.948 18.4552 19.5708 18.0235 20.0813 17.4814C20.6122 16.9192 21.0104 16.2365 21.2758 15.4334C21.5413 14.6303 21.674 13.7368 21.674 12.7529C21.674 11.7691 21.5413 10.8856 21.2758 10.1026C21.0104 9.29945 20.6122 8.61678 20.0813 8.05458C19.5708 7.49239 18.948 7.0607 18.2129 6.75953C17.4778 6.43827 16.6508 6.27765 15.7319 6.27765H11.1069L11.6889 5.55482V20.0113Z" fill="#111827"/>
<path d="M37.4074 23.5953C35.7534 23.5953 34.273 23.2439 32.9661 22.5412C31.6797 21.8183 30.6587 20.8345 29.9032 19.5896C29.1681 18.3448 28.8006 16.9192 28.8006 15.3129C28.8006 13.7067 29.1681 12.2911 29.9032 11.0663C30.6587 9.82149 31.6797 8.83764 32.9661 8.11482C34.273 7.392 35.7534 7.03059 37.4074 7.03059C39.0409 7.03059 40.5009 7.392 41.7874 8.11482C43.0942 8.83764 44.1152 9.82149 44.8503 11.0663C45.5854 12.2911 45.9529 13.7067 45.9529 15.3129C45.9529 16.9192 45.5854 18.3448 44.8503 19.5896C44.1152 20.8345 43.0942 21.8183 41.7874 22.5412C40.5009 23.2439 39.0409 23.5953 37.4074 23.5953ZM37.4074 19.8607C38.2037 19.8607 38.9184 19.67 39.5514 19.2885C40.1844 18.8869 40.6745 18.3448 41.0216 17.6621C41.3892 16.9594 41.573 16.1763 41.573 15.3129C41.573 14.4295 41.3892 13.6464 41.0216 12.9638C40.6745 12.261 40.1844 11.7189 39.5514 11.3374C38.9184 10.9358 38.2037 10.7351 37.4074 10.7351C36.5906 10.7351 35.8657 10.9358 35.2327 11.3374C34.5997 11.739 34.0994 12.2811 33.7319 12.9638C33.3643 13.6464 33.1908 14.4295 33.2112 15.3129C33.1908 16.1763 33.3643 16.9594 33.7319 17.6621C34.0994 18.3448 34.5997 18.8869 35.2327 19.2885C35.8657 19.67 36.5906 19.8607 37.4074 19.8607Z" fill="#111827"/>
<path d="M56.27 23.5953C54.7181 23.5953 53.3296 23.2339 52.1044 22.5111C50.8792 21.7882 49.9093 20.8044 49.1946 19.5595C48.5004 18.3147 48.1532 16.8991 48.1532 15.3129C48.1532 13.7468 48.5004 12.3413 49.1946 11.0965C49.9093 9.83153 50.8792 8.83764 52.1044 8.11482C53.3296 7.392 54.7181 7.03059 56.27 7.03059C57.7198 7.03059 59.047 7.29161 60.2518 7.81364C61.4565 8.33568 62.3958 9.05851 63.0697 9.98211L60.6806 12.8132C60.3947 12.4317 60.0374 12.0904 59.6086 11.7892C59.1798 11.4679 58.7101 11.2169 58.1996 11.0362C57.7096 10.8555 57.1991 10.7652 56.6682 10.7652C55.831 10.7652 55.0857 10.966 54.4322 11.3675C53.7992 11.749 53.2989 12.2811 52.9314 12.9638C52.5638 13.6464 52.3801 14.4295 52.3801 15.3129C52.3801 16.1763 52.5638 16.9493 52.9314 17.632C53.3194 18.2946 53.8401 18.8367 54.4935 19.2584C55.1469 19.6599 55.882 19.8607 56.6988 19.8607C57.2297 19.8607 57.73 19.7904 58.1996 19.6499C58.6693 19.4893 59.1083 19.2584 59.5167 18.9572C59.9455 18.656 60.3335 18.2946 60.6806 17.8729L63.039 20.704C62.3448 21.5674 61.3851 22.2701 60.1599 22.8122C58.9347 23.3343 57.6381 23.5953 56.27 23.5953Z" fill="#111827"/>
<path d="M71.4006 23.5953C70.2163 23.5953 69.1953 23.3443 68.3377 22.8424C67.5005 22.3203 66.847 21.5874 66.3774 20.6438C65.9282 19.68 65.7035 18.5255 65.7035 17.1802V7.36188H70.0529V16.4875C70.0529 17.2104 70.1754 17.8428 70.4204 18.3849C70.6655 18.907 71.0126 19.3085 71.4618 19.5896C71.9111 19.8707 72.4624 20.0113 73.1158 20.0113C73.5855 20.0113 74.0245 19.941 74.4329 19.8005C74.8413 19.6398 75.1884 19.419 75.4743 19.1379C75.7601 18.8568 75.9848 18.5255 76.1481 18.144C76.3115 17.7625 76.3932 17.3509 76.3932 16.9092V7.36188H80.7425V23.2941H76.6076L76.4544 20.0113L77.2508 19.6499C77.0057 20.3928 76.5974 21.0654 76.0256 21.6678C75.4539 22.2701 74.7698 22.742 73.9734 23.0833C73.1771 23.4246 72.3195 23.5953 71.4006 23.5953Z" fill="#111827"/>
<path d="M85.0883 23.2941V7.36188H89.2845L89.3764 10.4038L88.7332 10.5242C88.9578 10.0022 89.2538 9.53035 89.6214 9.1087C89.9889 8.68706 90.4178 8.32564 90.9078 8.02447C91.4183 7.72329 91.9492 7.49239 92.5005 7.33176C93.0519 7.15106 93.6032 7.0607 94.1545 7.0607C94.9917 7.0607 95.7472 7.19121 96.4211 7.45223C97.0949 7.71325 97.6667 8.12486 98.1363 8.68706C98.606 9.22917 98.9735 9.952 99.239 10.8555L98.5651 10.7953L98.7795 10.3134C99.045 9.83153 99.3819 9.39984 99.7903 9.01835C100.199 8.61678 100.658 8.27545 101.169 7.99435C101.679 7.69317 102.21 7.46227 102.761 7.30164C103.313 7.14102 103.854 7.0607 104.385 7.0607C105.651 7.0607 106.702 7.31168 107.54 7.81364C108.377 8.29553 109 9.02839 109.408 10.0122C109.837 10.9961 110.051 12.2008 110.051 13.6264V23.2941H105.702V13.9275C105.702 13.2047 105.6 12.6124 105.395 12.1506C105.191 11.6888 104.895 11.3474 104.507 11.1266C104.119 10.8856 103.619 10.7652 103.006 10.7652C102.537 10.7652 102.098 10.8455 101.689 11.0061C101.301 11.1467 100.954 11.3575 100.648 11.6386C100.362 11.8996 100.137 12.2108 99.9741 12.5722C99.8107 12.9336 99.729 13.3352 99.729 13.7769V23.2941H95.3797V13.8974C95.3797 13.2348 95.2674 12.6726 95.0428 12.2108C94.8386 11.7289 94.5425 11.3675 94.1545 11.1266C93.7666 10.8856 93.2867 10.7652 92.715 10.7652C92.2453 10.7652 91.8063 10.8455 91.3979 11.0061C91.0099 11.1467 90.673 11.3575 90.3871 11.6386C90.1013 11.8996 89.8664 12.2108 89.6827 12.5722C89.5193 12.9336 89.4376 13.3252 89.4376 13.7468V23.2941H85.0883Z" fill="#111827"/>
<path d="M120.257 23.5953C118.91 23.5953 117.695 23.2339 116.612 22.5111C115.53 21.7882 114.673 20.8044 114.04 19.5595C113.407 18.3147 113.09 16.8891 113.09 15.2828C113.09 13.6765 113.407 12.261 114.04 11.0362C114.693 9.79137 115.571 8.81757 116.674 8.11482C117.776 7.392 119.032 7.03059 120.441 7.03059C121.237 7.03059 121.962 7.15106 122.616 7.392C123.29 7.61286 123.872 7.92408 124.362 8.32564C124.872 8.72721 125.301 9.18902 125.648 9.71106C125.995 10.2331 126.24 10.7953 126.383 11.3976L125.464 11.2471V7.36188H129.783V23.2941H125.403V19.4692L126.383 19.3788C126.22 19.941 125.954 20.4731 125.587 20.9751C125.219 21.477 124.76 21.9288 124.209 22.3303C123.678 22.7118 123.075 23.0231 122.401 23.264C121.728 23.4849 121.013 23.5953 120.257 23.5953ZM121.452 19.8908C122.269 19.8908 122.983 19.7001 123.596 19.3186C124.209 18.9371 124.678 18.405 125.005 17.7224C125.352 17.0196 125.526 16.2064 125.526 15.2828C125.526 14.3793 125.352 13.5862 125.005 12.9035C124.678 12.2209 124.209 11.6888 123.596 11.3073C122.983 10.9057 122.269 10.7049 121.452 10.7049C120.656 10.7049 119.951 10.9057 119.338 11.3073C118.746 11.6888 118.277 12.2209 117.93 12.9035C117.582 13.5862 117.409 14.3793 117.409 15.2828C117.409 16.2064 117.582 17.0196 117.93 17.7224C118.277 18.405 118.746 18.9371 119.338 19.3186C119.951 19.7001 120.656 19.8908 121.452 19.8908Z" fill="#111827"/>
<path d="M135.706 23.2941V3.32611H140.055V23.2941H135.706ZM132.673 11.1868V7.36188H143.363V11.1868H132.673Z" fill="#111827"/>
<path d="M153.736 23.5953C151.98 23.5953 150.449 23.2439 149.142 22.5412C147.835 21.8384 146.814 20.8747 146.079 19.6499C145.344 18.4251 144.976 17.0196 144.976 15.4334C144.976 14.2086 145.181 13.0842 145.589 12.0602C145.997 11.0362 146.569 10.1528 147.304 9.40988C148.039 8.6469 148.907 8.06462 149.908 7.66305C150.929 7.24141 152.031 7.03059 153.216 7.03059C154.318 7.03059 155.339 7.23137 156.279 7.63294C157.218 8.01443 158.024 8.56658 158.698 9.28941C159.393 9.99215 159.923 10.8254 160.291 11.7892C160.659 12.7529 160.822 13.8071 160.781 14.9515L160.75 16.2767H147.733L147.029 13.6565H157.167L156.677 14.1986V13.536C156.636 12.9939 156.452 12.502 156.125 12.0602C155.819 11.6185 155.421 11.2772 154.931 11.0362C154.441 10.7953 153.889 10.6748 153.277 10.6748C152.378 10.6748 151.613 10.8455 150.98 11.1868C150.367 11.5282 149.897 12.0301 149.571 12.6927C149.244 13.3553 149.081 14.1584 149.081 15.1021C149.081 16.0659 149.285 16.8991 149.693 17.6019C150.122 18.3046 150.714 18.8568 151.47 19.2584C152.246 19.6398 153.154 19.8306 154.196 19.8306C154.91 19.8306 155.564 19.7202 156.156 19.4993C156.748 19.2784 157.381 18.8969 158.055 18.3548L160.138 21.216C159.546 21.738 158.892 22.1798 158.178 22.5412C157.463 22.8825 156.728 23.1435 155.972 23.3242C155.217 23.5049 154.471 23.5953 153.736 23.5953Z" fill="#111827"/>
<ellipse cx="2.15362" cy="9.64707" rx="2.15362" ry="2.11765" fill="#111827"/>
<ellipse cx="2.15362" cy="17.8824" rx="2.15362" ry="2.11765" fill="#111827"/>
</svg>
