<svg width="111" height="90" viewBox="0 0 111 90" fill="none" xmlns="http://www.w3.org/2000/svg">
<path d="M29.6479 90V0.399994H66.3839C72.9546 0.399994 78.8853 1.50933 84.1759 3.728C89.552 5.86133 94.16 8.93333 97.9999 12.944C101.925 16.8693 104.912 21.5627 106.96 27.024C109.008 32.4853 110.032 38.544 110.032 45.2C110.032 51.7707 109.008 57.8293 106.96 63.376C104.912 68.8373 101.968 73.5733 98.128 77.584C94.2879 81.5093 89.68 84.5813 84.3039 86.8C78.9279 88.9333 72.9546 90 66.3839 90H29.6479ZM48.8479 76.048L46.7999 72.72H65.7439C69.584 72.72 73.04 72.08 76.112 70.8C79.184 69.4347 81.7866 67.6 83.92 65.296C86.1386 62.9067 87.8026 60.0053 88.9119 56.592C90.0213 53.1787 90.576 49.3813 90.576 45.2C90.576 41.0187 90.0213 37.264 88.9119 33.936C87.8026 30.5227 86.1386 27.6213 83.92 25.232C81.7866 22.8427 79.184 21.008 76.112 19.728C73.04 18.3627 69.584 17.68 65.7439 17.68H46.416L48.8479 14.608V76.048Z" fill="#111827"/>
<path d="M18 32C18 36.9706 13.9706 41 9 41C4.02944 41 0 36.9706 0 32C0 27.0294 4.02944 23 9 23C13.9706 23 18 27.0294 18 32Z" fill="#111827"/>
<path d="M18 67C18 71.9706 13.9706 76 9 76C4.02944 76 0 71.9706 0 67C0 62.0294 4.02944 58 9 58C13.9706 58 18 62.0294 18 67Z" fill="#111827"/>
</svg>
