<svg width="544" height="512" viewBox="0 0 544 512" fill="none" xmlns="http://www.w3.org/2000/svg">
<rect x="2" y="2" width="540" height="508" rx="14" fill="#F9FAFB"/>
<g clip-path="url(#clip0_264_1962)">
<path d="M280 252L272 244L264 252" stroke="#3987CF" stroke-width="2" stroke-linecap="round" stroke-linejoin="round"/>
<path d="M272 244V262" stroke="#3987CF" stroke-width="4" stroke-linecap="round" stroke-linejoin="round"/>
<path d="M288.78 256.78C290.731 255.717 292.272 254.034 293.16 251.997C294.048 249.961 294.232 247.686 293.684 245.533C293.136 243.38 291.887 241.471 290.133 240.107C288.38 238.743 286.222 238.001 284 238H281.48C280.875 235.658 279.746 233.485 278.18 231.642C276.613 229.799 274.65 228.336 272.436 227.361C270.223 226.387 267.817 225.927 265.4 226.016C262.983 226.105 260.618 226.741 258.482 227.875C256.346 229.01 254.496 230.614 253.069 232.567C251.643 234.52 250.677 236.771 250.246 239.151C249.814 241.531 249.928 243.977 250.578 246.307C251.229 248.636 252.398 250.788 254 252.6" stroke="#3987CF" stroke-width="4" stroke-linecap="round" stroke-linejoin="round"/>
<path d="M280 252L272 244L264 252" stroke="#3987CF" stroke-width="4" stroke-linecap="round" stroke-linejoin="round"/>
</g>
<path d="M127.303 287H122.814V272.455H127.502C128.913 272.455 130.12 272.746 131.124 273.328C132.128 273.906 132.897 274.737 133.432 275.821C133.967 276.901 134.235 278.193 134.235 279.699C134.235 281.214 133.965 282.518 133.425 283.612C132.885 284.701 132.099 285.539 131.067 286.126C130.035 286.709 128.78 287 127.303 287ZM124.575 285.438H127.189C128.392 285.438 129.388 285.205 130.179 284.741C130.97 284.277 131.559 283.617 131.948 282.76C132.336 281.903 132.53 280.883 132.53 279.699C132.53 278.525 132.338 277.514 131.955 276.666C131.571 275.814 130.998 275.161 130.236 274.706C129.474 274.247 128.524 274.017 127.388 274.017H124.575V285.438ZM136.962 287V276.091H138.581V277.739H138.695C138.894 277.199 139.253 276.761 139.774 276.425C140.295 276.089 140.882 275.92 141.536 275.92C141.659 275.92 141.813 275.923 141.997 275.928C142.182 275.932 142.322 275.939 142.416 275.949V277.653C142.36 277.639 142.229 277.618 142.026 277.589C141.827 277.556 141.616 277.54 141.394 277.54C140.863 277.54 140.39 277.651 139.973 277.874C139.561 278.091 139.235 278.394 138.993 278.783C138.756 279.166 138.638 279.604 138.638 280.097V287H136.962ZM147.613 287.256C146.922 287.256 146.295 287.125 145.731 286.865C145.168 286.6 144.72 286.219 144.389 285.722C144.058 285.22 143.892 284.614 143.892 283.903C143.892 283.278 144.015 282.772 144.261 282.384C144.507 281.991 144.836 281.683 145.248 281.46C145.66 281.238 146.115 281.072 146.612 280.963C147.114 280.849 147.618 280.759 148.125 280.693C148.788 280.608 149.325 280.544 149.737 280.501C150.154 280.454 150.457 280.376 150.646 280.267C150.84 280.158 150.937 279.969 150.937 279.699V279.642C150.937 278.941 150.746 278.397 150.362 278.009C149.983 277.62 149.408 277.426 148.636 277.426C147.836 277.426 147.209 277.601 146.754 277.952C146.3 278.302 145.98 278.676 145.795 279.074L144.204 278.506C144.488 277.843 144.867 277.327 145.341 276.957C145.819 276.583 146.34 276.323 146.903 276.176C147.471 276.025 148.03 275.949 148.579 275.949C148.93 275.949 149.332 275.991 149.787 276.077C150.246 276.157 150.689 276.325 151.115 276.581C151.546 276.837 151.903 277.223 152.187 277.739C152.471 278.255 152.613 278.946 152.613 279.812V287H150.937V285.523H150.852C150.738 285.759 150.549 286.013 150.284 286.283C150.019 286.553 149.666 286.782 149.226 286.972C148.785 287.161 148.248 287.256 147.613 287.256ZM147.869 285.75C148.532 285.75 149.091 285.62 149.545 285.359C150.005 285.099 150.35 284.763 150.582 284.351C150.819 283.939 150.937 283.506 150.937 283.051V281.517C150.866 281.602 150.71 281.68 150.469 281.751C150.232 281.818 149.957 281.877 149.645 281.929C149.337 281.976 149.036 282.019 148.743 282.057C148.454 282.09 148.22 282.118 148.04 282.142C147.604 282.199 147.197 282.291 146.818 282.419C146.444 282.542 146.141 282.729 145.909 282.98C145.682 283.226 145.568 283.562 145.568 283.989C145.568 284.571 145.783 285.011 146.214 285.31C146.65 285.603 147.202 285.75 147.869 285.75ZM160.076 291.318C159.267 291.318 158.57 291.214 157.988 291.006C157.406 290.802 156.92 290.532 156.532 290.196C156.149 289.865 155.843 289.509 155.616 289.131L156.951 288.193C157.103 288.392 157.294 288.619 157.526 288.875C157.758 289.135 158.076 289.36 158.478 289.55C158.885 289.744 159.418 289.841 160.076 289.841C160.957 289.841 161.684 289.628 162.257 289.202C162.829 288.776 163.116 288.108 163.116 287.199V284.983H162.974C162.851 285.182 162.676 285.428 162.448 285.722C162.226 286.01 161.904 286.268 161.482 286.496C161.066 286.718 160.502 286.83 159.792 286.83C158.911 286.83 158.121 286.621 157.42 286.205C156.724 285.788 156.172 285.182 155.765 284.386C155.363 283.591 155.161 282.625 155.161 281.489C155.161 280.371 155.358 279.398 155.751 278.57C156.144 277.736 156.691 277.092 157.392 276.638C158.092 276.179 158.902 275.949 159.82 275.949C160.531 275.949 161.094 276.067 161.511 276.304C161.932 276.536 162.254 276.801 162.477 277.099C162.704 277.393 162.879 277.634 163.002 277.824H163.173V276.091H164.792V287.312C164.792 288.25 164.579 289.012 164.153 289.599C163.731 290.191 163.163 290.625 162.448 290.899C161.738 291.179 160.947 291.318 160.076 291.318ZM160.019 285.324C160.692 285.324 161.26 285.17 161.724 284.862C162.188 284.554 162.541 284.112 162.782 283.534C163.024 282.956 163.144 282.265 163.144 281.46C163.144 280.674 163.026 279.981 162.789 279.379C162.552 278.778 162.202 278.307 161.738 277.966C161.274 277.625 160.701 277.455 160.019 277.455C159.309 277.455 158.717 277.634 158.244 277.994C157.775 278.354 157.422 278.837 157.186 279.443C156.954 280.049 156.838 280.722 156.838 281.46C156.838 282.218 156.956 282.888 157.193 283.47C157.434 284.048 157.789 284.502 158.258 284.834C158.731 285.161 159.319 285.324 160.019 285.324ZM170.36 285.011L170.247 285.778C170.166 286.318 170.043 286.896 169.877 287.511C169.716 288.127 169.548 288.707 169.373 289.251C169.198 289.796 169.053 290.229 168.94 290.551H167.661C167.723 290.248 167.803 289.848 167.903 289.351C168.002 288.854 168.102 288.297 168.201 287.682C168.305 287.071 168.391 286.446 168.457 285.807L168.542 285.011H170.36ZM183.21 287.227C182.301 287.227 181.498 286.998 180.802 286.538C180.106 286.074 179.562 285.421 179.169 284.578C178.776 283.731 178.579 282.729 178.579 281.574C178.579 280.428 178.776 279.434 179.169 278.591C179.562 277.748 180.109 277.097 180.809 276.638C181.51 276.179 182.32 275.949 183.238 275.949C183.949 275.949 184.51 276.067 184.922 276.304C185.338 276.536 185.656 276.801 185.873 277.099C186.096 277.393 186.269 277.634 186.392 277.824H186.534V272.455H188.21V287H186.591V285.324H186.392C186.269 285.523 186.094 285.774 185.866 286.077C185.639 286.375 185.315 286.643 184.893 286.879C184.472 287.111 183.911 287.227 183.21 287.227ZM183.437 285.722C184.11 285.722 184.678 285.546 185.142 285.196C185.606 284.841 185.959 284.351 186.2 283.726C186.442 283.096 186.562 282.369 186.562 281.545C186.562 280.731 186.444 280.018 186.207 279.408C185.97 278.792 185.62 278.314 185.156 277.973C184.692 277.627 184.119 277.455 183.437 277.455C182.727 277.455 182.135 277.637 181.662 278.001C181.193 278.361 180.84 278.851 180.604 279.472C180.372 280.087 180.256 280.778 180.256 281.545C180.256 282.322 180.374 283.027 180.611 283.662C180.852 284.292 181.207 284.794 181.676 285.168C182.149 285.537 182.737 285.722 183.437 285.722ZM191.513 287V276.091H193.132V277.739H193.246C193.444 277.199 193.804 276.761 194.325 276.425C194.846 276.089 195.433 275.92 196.086 275.92C196.21 275.92 196.363 275.923 196.548 275.928C196.733 275.932 196.872 275.939 196.967 275.949V277.653C196.91 277.639 196.78 277.618 196.577 277.589C196.378 277.556 196.167 277.54 195.944 277.54C195.414 277.54 194.941 277.651 194.524 277.874C194.112 278.091 193.785 278.394 193.544 278.783C193.307 279.166 193.189 279.604 193.189 280.097V287H191.513ZM203.054 287.227C202.069 287.227 201.205 286.993 200.461 286.524C199.723 286.055 199.145 285.4 198.729 284.557C198.317 283.714 198.111 282.729 198.111 281.602C198.111 280.466 198.317 279.474 198.729 278.626C199.145 277.779 199.723 277.121 200.461 276.652C201.205 276.183 202.069 275.949 203.054 275.949C204.039 275.949 204.9 276.183 205.639 276.652C206.382 277.121 206.96 277.779 207.372 278.626C207.789 279.474 207.997 280.466 207.997 281.602C207.997 282.729 207.789 283.714 207.372 284.557C206.96 285.4 206.382 286.055 205.639 286.524C204.9 286.993 204.039 287.227 203.054 287.227ZM203.054 285.722C203.802 285.722 204.417 285.53 204.9 285.146C205.383 284.763 205.741 284.259 205.973 283.634C206.205 283.009 206.321 282.331 206.321 281.602C206.321 280.873 206.205 280.194 205.973 279.564C205.741 278.934 205.383 278.425 204.9 278.037C204.417 277.649 203.802 277.455 203.054 277.455C202.306 277.455 201.69 277.649 201.207 278.037C200.724 278.425 200.367 278.934 200.135 279.564C199.903 280.194 199.787 280.873 199.787 281.602C199.787 282.331 199.903 283.009 200.135 283.634C200.367 284.259 200.724 284.763 201.207 285.146C201.69 285.53 202.306 285.722 203.054 285.722ZM210.556 291.091V276.091H212.175V277.824H212.374C212.497 277.634 212.667 277.393 212.885 277.099C213.108 276.801 213.425 276.536 213.837 276.304C214.253 276.067 214.817 275.949 215.527 275.949C216.446 275.949 217.255 276.179 217.956 276.638C218.657 277.097 219.204 277.748 219.597 278.591C219.99 279.434 220.186 280.428 220.186 281.574C220.186 282.729 219.99 283.731 219.597 284.578C219.204 285.421 218.659 286.074 217.963 286.538C217.267 286.998 216.465 287.227 215.556 287.227C214.855 287.227 214.294 287.111 213.872 286.879C213.451 286.643 213.127 286.375 212.899 286.077C212.672 285.774 212.497 285.523 212.374 285.324H212.232V291.091H210.556ZM212.203 281.545C212.203 282.369 212.324 283.096 212.566 283.726C212.807 284.351 213.16 284.841 213.624 285.196C214.088 285.546 214.656 285.722 215.328 285.722C216.029 285.722 216.614 285.537 217.083 285.168C217.556 284.794 217.911 284.292 218.148 283.662C218.389 283.027 218.51 282.322 218.51 281.545C218.51 280.778 218.392 280.087 218.155 279.472C217.923 278.851 217.57 278.361 217.097 278.001C216.628 277.637 216.039 277.455 215.328 277.455C214.646 277.455 214.074 277.627 213.61 277.973C213.146 278.314 212.795 278.792 212.558 279.408C212.322 280.018 212.203 280.731 212.203 281.545ZM225.243 285.011L225.129 285.778C225.049 286.318 224.926 286.896 224.76 287.511C224.599 288.127 224.431 288.707 224.256 289.251C224.081 289.796 223.936 290.229 223.823 290.551H222.544C222.606 290.248 222.686 289.848 222.786 289.351C222.885 288.854 222.985 288.297 223.084 287.682C223.188 287.071 223.273 286.446 223.34 285.807L223.425 285.011H225.243ZM238.405 287.227C237.421 287.227 236.556 286.993 235.813 286.524C235.074 286.055 234.497 285.4 234.08 284.557C233.668 283.714 233.462 282.729 233.462 281.602C233.462 280.466 233.668 279.474 234.08 278.626C234.497 277.779 235.074 277.121 235.813 276.652C236.556 276.183 237.421 275.949 238.405 275.949C239.39 275.949 240.252 276.183 240.991 276.652C241.734 277.121 242.312 277.779 242.724 278.626C243.14 279.474 243.349 280.466 243.349 281.602C243.349 282.729 243.14 283.714 242.724 284.557C242.312 285.4 241.734 286.055 240.991 286.524C240.252 286.993 239.39 287.227 238.405 287.227ZM238.405 285.722C239.153 285.722 239.769 285.53 240.252 285.146C240.735 284.763 241.092 284.259 241.324 283.634C241.556 283.009 241.672 282.331 241.672 281.602C241.672 280.873 241.556 280.194 241.324 279.564C241.092 278.934 240.735 278.425 240.252 278.037C239.769 277.649 239.153 277.455 238.405 277.455C237.657 277.455 237.042 277.649 236.559 278.037C236.076 278.425 235.718 278.934 235.486 279.564C235.254 280.194 235.138 280.873 235.138 281.602C235.138 282.331 235.254 283.009 235.486 283.634C235.718 284.259 236.076 284.763 236.559 285.146C237.042 285.53 237.657 285.722 238.405 285.722ZM245.907 287V276.091H247.526V277.739H247.64C247.839 277.199 248.199 276.761 248.72 276.425C249.24 276.089 249.828 275.92 250.481 275.92C250.604 275.92 250.758 275.923 250.943 275.928C251.127 275.932 251.267 275.939 251.362 275.949V277.653C251.305 277.639 251.175 277.618 250.971 277.589C250.772 277.556 250.561 277.54 250.339 277.54C249.809 277.54 249.335 277.651 248.919 277.874C248.507 278.091 248.18 278.394 247.938 278.783C247.702 279.166 247.583 279.604 247.583 280.097V287H245.907ZM259.201 287V272.455H260.877V277.824H261.019C261.142 277.634 261.313 277.393 261.53 277.099C261.753 276.801 262.07 276.536 262.482 276.304C262.899 276.067 263.462 275.949 264.172 275.949C265.091 275.949 265.901 276.179 266.601 276.638C267.302 277.097 267.849 277.748 268.242 278.591C268.635 279.434 268.831 280.428 268.831 281.574C268.831 282.729 268.635 283.731 268.242 284.578C267.849 285.421 267.305 286.074 266.608 286.538C265.912 286.998 265.11 287.227 264.201 287.227C263.5 287.227 262.939 287.111 262.518 286.879C262.096 286.643 261.772 286.375 261.545 286.077C261.317 285.774 261.142 285.523 261.019 285.324H260.82V287H259.201ZM260.849 281.545C260.849 282.369 260.969 283.096 261.211 283.726C261.452 284.351 261.805 284.841 262.269 285.196C262.733 285.546 263.301 285.722 263.974 285.722C264.674 285.722 265.259 285.537 265.728 285.168C266.201 284.794 266.556 284.292 266.793 283.662C267.035 283.027 267.155 282.322 267.155 281.545C267.155 280.778 267.037 280.087 266.8 279.472C266.568 278.851 266.215 278.361 265.742 278.001C265.273 277.637 264.684 277.455 263.974 277.455C263.292 277.455 262.719 277.627 262.255 277.973C261.791 278.314 261.44 278.792 261.204 279.408C260.967 280.018 260.849 280.731 260.849 281.545ZM271.395 287V276.091H273.015V277.739H273.128C273.327 277.199 273.687 276.761 274.208 276.425C274.729 276.089 275.316 275.92 275.969 275.92C276.092 275.92 276.246 275.923 276.431 275.928C276.616 275.932 276.755 275.939 276.85 275.949V277.653C276.793 277.639 276.663 277.618 276.459 277.589C276.26 277.556 276.05 277.54 275.827 277.54C275.297 277.54 274.823 277.651 274.407 277.874C273.995 278.091 273.668 278.394 273.427 278.783C273.19 279.166 273.072 279.604 273.072 280.097V287H271.395ZM282.937 287.227C281.952 287.227 281.088 286.993 280.344 286.524C279.606 286.055 279.028 285.4 278.611 284.557C278.199 283.714 277.993 282.729 277.993 281.602C277.993 280.466 278.199 279.474 278.611 278.626C279.028 277.779 279.606 277.121 280.344 276.652C281.088 276.183 281.952 275.949 282.937 275.949C283.921 275.949 284.783 276.183 285.522 276.652C286.265 277.121 286.843 277.779 287.255 278.626C287.671 279.474 287.88 280.466 287.88 281.602C287.88 282.729 287.671 283.714 287.255 284.557C286.843 285.4 286.265 286.055 285.522 286.524C284.783 286.993 283.921 287.227 282.937 287.227ZM282.937 285.722C283.685 285.722 284.3 285.53 284.783 285.146C285.266 284.763 285.624 284.259 285.856 283.634C286.088 283.009 286.204 282.331 286.204 281.602C286.204 280.873 286.088 280.194 285.856 279.564C285.624 278.934 285.266 278.425 284.783 278.037C284.3 277.649 283.685 277.455 282.937 277.455C282.189 277.455 281.573 277.649 281.09 278.037C280.607 278.425 280.25 278.934 280.018 279.564C279.786 280.194 279.67 280.873 279.67 281.602C279.67 282.331 279.786 283.009 280.018 283.634C280.25 284.259 280.607 284.763 281.09 285.146C281.573 285.53 282.189 285.722 282.937 285.722ZM292.539 287L289.215 276.091H290.976L293.334 284.443H293.448L295.778 276.091H297.567L299.868 284.415H299.982L302.34 276.091H304.101L300.778 287H299.13L296.743 278.619H296.573L294.187 287H292.539ZM314.045 278.534L312.539 278.96C312.444 278.709 312.305 278.465 312.12 278.229C311.94 277.987 311.694 277.788 311.381 277.632C311.069 277.476 310.669 277.398 310.181 277.398C309.513 277.398 308.957 277.552 308.512 277.859C308.072 278.162 307.851 278.548 307.851 279.017C307.851 279.434 308.003 279.763 308.306 280.004C308.609 280.246 309.082 280.447 309.726 280.608L311.346 281.006C312.321 281.242 313.048 281.605 313.526 282.092C314.004 282.575 314.243 283.198 314.243 283.96C314.243 284.585 314.064 285.144 313.704 285.636C313.349 286.129 312.851 286.517 312.212 286.801C311.573 287.085 310.83 287.227 309.982 287.227C308.869 287.227 307.948 286.986 307.219 286.503C306.49 286.02 306.028 285.314 305.834 284.386L307.425 283.989C307.577 284.576 307.863 285.016 308.285 285.31C308.711 285.603 309.267 285.75 309.954 285.75C310.735 285.75 311.355 285.584 311.814 285.253C312.278 284.917 312.51 284.514 312.51 284.045C312.51 283.667 312.378 283.349 312.113 283.094C311.848 282.833 311.44 282.639 310.891 282.511L309.073 282.085C308.074 281.848 307.34 281.482 306.871 280.984C306.407 280.482 306.175 279.855 306.175 279.102C306.175 278.487 306.348 277.942 306.694 277.469C307.044 276.995 307.52 276.624 308.121 276.354C308.727 276.084 309.414 275.949 310.181 275.949C311.26 275.949 312.108 276.186 312.724 276.659C313.344 277.133 313.784 277.758 314.045 278.534ZM321.34 287.227C320.289 287.227 319.383 286.995 318.62 286.531C317.863 286.062 317.278 285.409 316.866 284.571C316.459 283.728 316.255 282.748 316.255 281.631C316.255 280.513 316.459 279.528 316.866 278.676C317.278 277.819 317.851 277.152 318.585 276.673C319.323 276.19 320.185 275.949 321.17 275.949C321.738 275.949 322.299 276.044 322.853 276.233C323.407 276.422 323.911 276.73 324.366 277.156C324.82 277.578 325.183 278.136 325.453 278.832C325.722 279.528 325.857 280.385 325.857 281.403V282.114H317.448V280.665H324.153C324.153 280.049 324.03 279.5 323.784 279.017C323.542 278.534 323.196 278.153 322.747 277.874C322.302 277.594 321.776 277.455 321.17 277.455C320.502 277.455 319.925 277.62 319.437 277.952C318.954 278.278 318.582 278.705 318.322 279.23C318.061 279.756 317.931 280.319 317.931 280.92V281.886C317.931 282.71 318.073 283.409 318.357 283.982C318.646 284.55 319.046 284.983 319.558 285.281C320.069 285.575 320.663 285.722 321.34 285.722C321.781 285.722 322.178 285.66 322.534 285.537C322.893 285.409 323.204 285.22 323.464 284.969C323.724 284.713 323.926 284.396 324.068 284.017L325.687 284.472C325.517 285.021 325.23 285.504 324.828 285.92C324.425 286.332 323.928 286.654 323.336 286.886C322.744 287.114 322.079 287.227 321.34 287.227ZM337.242 287.256C336.551 287.256 335.924 287.125 335.36 286.865C334.797 286.6 334.349 286.219 334.018 285.722C333.686 285.22 333.521 284.614 333.521 283.903C333.521 283.278 333.644 282.772 333.89 282.384C334.136 281.991 334.465 281.683 334.877 281.46C335.289 281.238 335.744 281.072 336.241 280.963C336.743 280.849 337.247 280.759 337.754 280.693C338.417 280.608 338.954 280.544 339.366 280.501C339.783 280.454 340.086 280.376 340.275 280.267C340.469 280.158 340.566 279.969 340.566 279.699V279.642C340.566 278.941 340.374 278.397 339.991 278.009C339.612 277.62 339.037 277.426 338.265 277.426C337.465 277.426 336.838 277.601 336.383 277.952C335.928 278.302 335.609 278.676 335.424 279.074L333.833 278.506C334.117 277.843 334.496 277.327 334.97 276.957C335.448 276.583 335.969 276.323 336.532 276.176C337.1 276.025 337.659 275.949 338.208 275.949C338.559 275.949 338.961 275.991 339.416 276.077C339.875 276.157 340.318 276.325 340.744 276.581C341.175 276.837 341.532 277.223 341.816 277.739C342.1 278.255 342.242 278.946 342.242 279.812V287H340.566V285.523H340.481C340.367 285.759 340.178 286.013 339.913 286.283C339.648 286.553 339.295 286.782 338.855 286.972C338.414 287.161 337.877 287.256 337.242 287.256ZM337.498 285.75C338.161 285.75 338.72 285.62 339.174 285.359C339.633 285.099 339.979 284.763 340.211 284.351C340.448 283.939 340.566 283.506 340.566 283.051V281.517C340.495 281.602 340.339 281.68 340.097 281.751C339.861 281.818 339.586 281.877 339.274 281.929C338.966 281.976 338.665 282.019 338.372 282.057C338.083 282.09 337.848 282.118 337.669 282.142C337.233 282.199 336.826 282.291 336.447 282.419C336.073 282.542 335.77 282.729 335.538 282.98C335.311 283.226 335.197 283.562 335.197 283.989C335.197 284.571 335.412 285.011 335.843 285.31C336.279 285.603 336.83 285.75 337.498 285.75ZM352.603 280.438V287H350.927V276.091H352.546V277.795H352.688C352.944 277.241 353.332 276.796 353.853 276.46C354.374 276.119 355.046 275.949 355.87 275.949C356.608 275.949 357.255 276.1 357.809 276.403C358.363 276.702 358.794 277.156 359.101 277.767C359.409 278.373 359.563 279.14 359.563 280.068V287H357.887V280.182C357.887 279.325 357.664 278.657 357.219 278.179C356.774 277.696 356.163 277.455 355.387 277.455C354.852 277.455 354.374 277.571 353.952 277.803C353.536 278.035 353.206 278.373 352.965 278.818C352.724 279.263 352.603 279.803 352.603 280.438ZM367.2 287.227C366.149 287.227 365.242 286.995 364.48 286.531C363.722 286.062 363.137 285.409 362.725 284.571C362.318 283.728 362.115 282.748 362.115 281.631C362.115 280.513 362.318 279.528 362.725 278.676C363.137 277.819 363.71 277.152 364.444 276.673C365.183 276.19 366.044 275.949 367.029 275.949C367.597 275.949 368.159 276.044 368.713 276.233C369.267 276.422 369.771 276.73 370.225 277.156C370.68 277.578 371.042 278.136 371.312 278.832C371.582 279.528 371.717 280.385 371.717 281.403V282.114H363.308V280.665H370.012C370.012 280.049 369.889 279.5 369.643 279.017C369.401 278.534 369.056 278.153 368.606 277.874C368.161 277.594 367.635 277.455 367.029 277.455C366.362 277.455 365.784 277.62 365.296 277.952C364.813 278.278 364.442 278.705 364.181 279.23C363.921 279.756 363.791 280.319 363.791 280.92V281.886C363.791 282.71 363.933 283.409 364.217 283.982C364.506 284.55 364.906 284.983 365.417 285.281C365.928 285.575 366.523 285.722 367.2 285.722C367.64 285.722 368.038 285.66 368.393 285.537C368.753 285.409 369.063 285.22 369.323 284.969C369.584 284.713 369.785 284.396 369.927 284.017L371.546 284.472C371.376 285.021 371.089 285.504 370.687 285.92C370.285 286.332 369.787 286.654 369.195 286.886C368.604 287.114 367.938 287.227 367.2 287.227ZM376.738 287L373.414 276.091H375.176L377.534 284.443H377.647L379.977 276.091H381.767L384.068 284.415H384.181L386.539 276.091H388.301L384.977 287H383.329L380.943 278.619H380.772L378.386 287H376.738ZM400.999 276.091V277.511H395.119V276.091H400.999ZM396.88 287V274.585C396.88 273.96 397.027 273.439 397.32 273.023C397.614 272.606 397.995 272.294 398.464 272.085C398.933 271.877 399.427 271.773 399.948 271.773C400.36 271.773 400.696 271.806 400.957 271.872C401.217 271.938 401.411 272 401.539 272.057L401.056 273.506C400.971 273.477 400.853 273.442 400.701 273.399C400.554 273.357 400.36 273.335 400.119 273.335C399.565 273.335 399.165 273.475 398.919 273.754C398.677 274.034 398.556 274.443 398.556 274.983V287H396.88ZM403.349 287V276.091H405.025V287H403.349ZM404.201 274.273C403.874 274.273 403.592 274.161 403.356 273.939C403.124 273.716 403.008 273.449 403.008 273.136C403.008 272.824 403.124 272.556 403.356 272.334C403.592 272.111 403.874 272 404.201 272C404.528 272 404.807 272.111 405.039 272.334C405.276 272.556 405.394 272.824 405.394 273.136C405.394 273.449 405.276 273.716 405.039 273.939C404.807 274.161 404.528 274.273 404.201 274.273ZM409.771 272.455V287H408.095V272.455H409.771ZM417.415 287.227C416.363 287.227 415.457 286.995 414.694 286.531C413.937 286.062 413.352 285.409 412.94 284.571C412.533 283.728 412.329 282.748 412.329 281.631C412.329 280.513 412.533 279.528 412.94 278.676C413.352 277.819 413.925 277.152 414.659 276.673C415.398 276.19 416.259 275.949 417.244 275.949C417.812 275.949 418.373 276.044 418.927 276.233C419.481 276.422 419.986 276.73 420.44 277.156C420.895 277.578 421.257 278.136 421.527 278.832C421.797 279.528 421.932 280.385 421.932 281.403V282.114H413.523V280.665H420.227C420.227 280.049 420.104 279.5 419.858 279.017C419.616 278.534 419.271 278.153 418.821 277.874C418.376 277.594 417.85 277.455 417.244 277.455C416.577 277.455 415.999 277.62 415.511 277.952C415.028 278.278 414.657 278.705 414.396 279.23C414.136 279.756 414.006 280.319 414.006 280.92V281.886C414.006 282.71 414.148 283.409 414.432 283.982C414.72 284.55 415.121 284.983 415.632 285.281C416.143 285.575 416.738 285.722 417.415 285.722C417.855 285.722 418.253 285.66 418.608 285.537C418.968 285.409 419.278 285.22 419.538 284.969C419.799 284.713 420 284.396 420.142 284.017L421.761 284.472C421.591 285.021 421.304 285.504 420.902 285.92C420.499 286.332 420.002 286.654 419.41 286.886C418.818 287.114 418.153 287.227 417.415 287.227Z" fill="#111827"/>
<rect x="2" y="2" width="540" height="508" rx="14" stroke="#E5E7EB" stroke-width="4" stroke-dasharray="16 16"/>
<defs>
<clipPath id="clip0_264_1962">
<rect width="48" height="48" fill="white" transform="translate(248 220)"/>
</clipPath>
</defs>
</svg>
