<svg width="70" height="35" viewBox="0 0 70 35" fill="none" xmlns="http://www.w3.org/2000/svg">
<rect x="0.560059" width="68.4445" height="35" rx="17.5" fill="#E5E7EB"/>
<rect x="39.4489" y="5.05554" width="24.8889" height="24.8889" rx="12.4444" fill="#6B7280"/>
<g clip-path="url(#clip0_458_1391)">
<path d="M51.8934 16.8519C52.4062 16.8519 52.9075 16.6999 53.3338 16.415C53.7602 16.1301 54.0925 15.7252 54.2887 15.2515C54.4849 14.7778 54.5362 14.2565 54.4362 13.7536C54.3362 13.2506 54.0893 12.7887 53.7267 12.4261C53.3641 12.0635 52.9021 11.8166 52.3992 11.7166C51.8963 11.6165 51.375 11.6679 50.9013 11.8641C50.4276 12.0603 50.0227 12.3926 49.7378 12.819C49.4529 13.2453 49.3008 13.7466 49.3008 14.2593C49.3008 14.9469 49.574 15.6064 50.0602 16.0926C50.5464 16.5788 51.2058 16.8519 51.8934 16.8519Z" fill="#F3F4F6"/>
<path d="M55.7823 23.3334C55.9542 23.3334 56.1191 23.2651 56.2406 23.1435C56.3622 23.022 56.4305 22.8571 56.4305 22.6852C56.4305 21.4819 55.9525 20.3279 55.1016 19.4771C54.2507 18.6262 53.0967 18.1482 51.8934 18.1482C50.6901 18.1482 49.5361 18.6262 48.6853 19.4771C47.8344 20.3279 47.3564 21.4819 47.3564 22.6852C47.3564 22.8571 47.4247 23.022 47.5462 23.1435C47.6678 23.2651 47.8326 23.3334 48.0045 23.3334H55.7823Z" fill="#F3F4F6"/>
</g>
<path d="M28.3526 16.4629H11.6563C11.1122 16.4629 10.6711 16.904 10.6711 17.4481V17.5518C10.6711 18.0959 11.1122 18.537 11.6563 18.537H28.3526C28.8967 18.537 29.3378 18.0959 29.3378 17.5518V17.4481C29.3378 16.904 28.8967 16.4629 28.3526 16.4629Z" fill="#6B7280"/>
<path d="M28.3526 21.6482H11.6563C11.1122 21.6482 10.6711 22.0893 10.6711 22.6334V22.7371C10.6711 23.2812 11.1122 23.7223 11.6563 23.7223H28.3526C28.8967 23.7223 29.3378 23.2812 29.3378 22.7371V22.6334C29.3378 22.0893 28.8967 21.6482 28.3526 21.6482Z" fill="#6B7280"/>
<path d="M28.3526 11.2777H11.6563C11.1122 11.2777 10.6711 11.7188 10.6711 12.2629V12.3666C10.6711 12.9107 11.1122 13.3518 11.6563 13.3518H28.3526C28.8967 13.3518 29.3378 12.9107 29.3378 12.3666V12.2629C29.3378 11.7188 28.8967 11.2777 28.3526 11.2777Z" fill="#6B7280"/>
<defs>
<clipPath id="clip0_458_1391">
<rect width="15.5556" height="15.5556" fill="white" transform="translate(44.1157 8.94446)"/>
</clipPath>
</defs>
</svg>
